# xmcd
#
# Track frame offsets:
#	150
#	16042
#	36185
#	54182
#	70447
#	88692
#	99535
#	115070
#	136477
#	155085
#
# Disc length: 2270 seconds
#
# Revision: 1
# Processed by: cddbd v1.5PL3 Copyright (c) Steve Scherf et al.
# Submitted via: CDex 1.50Beta5
#
DISCID=7e08dc0a
DTITLE=椎名恵 - TOY BOX
DYEAR=1996
DGENRE=New Age
TTITLE0=愛はかげろうのように
TTITLE1=ラブ・イズ・ブラインド
TTITLE2=あなたしか見えない
TTITLE3=デイ・ドリーム・ビリーバー
TTITLE4=トップ・オブ・ザ・ワールド
TTITLE5=遥かなる影
TTITLE6=ハロー
TTITLE7=ニューヨーク・シティ・セレナーデ
TTITLE8=若葉のころ
TTITLE9=Change Your Mind
EXTD=
EXTT0=
EXTT1=
EXTT2=
EXTT3=
EXTT4=
EXTT5=
EXTT6=
EXTT7=
EXTT8=
EXTT9=
PLAYORDER=
